<?xml version="1.0" encoding="UTF-8" standalone="no"?>
<!DOCTYPE svg PUBLIC "-//W3C//DTD SVG 1.1//EN"
 "http://www.w3.org/Graphics/SVG/1.1/DTD/svg11.dtd">
<!-- Generated by graphviz version 2.43.0 (0)
 -->
<!-- Title: %3 Pages: 1 -->
<svg width="1743pt" height="476pt"
 viewBox="0.00 0.00 1743.37 476.00" xmlns="http://www.w3.org/2000/svg" xmlns:xlink="http://www.w3.org/1999/xlink">
<g id="graph0" class="graph" transform="scale(1 1) rotate(0) translate(4 472)">
<title>%3</title>
<polygon fill="white" stroke="transparent" points="-4,4 -4,-472 1739.37,-472 1739.37,4 -4,4"/>
<!-- [root] azurerm_application_insights.appinsight&#45;app (expand) -->
<g id="node1" class="node">
<title>[root] azurerm_application_insights.appinsight&#45;app (expand)</title>
<polygon fill="none" stroke="black" points="1098.5,-324 761.5,-324 761.5,-288 1098.5,-288 1098.5,-324"/>
<text text-anchor="middle" x="930" y="-302.3" font-family="Times,serif" font-size="14.00">azurerm_application_insights.appinsight&#45;app</text>
</g>
<!-- [root] azurerm_resource_group.rg&#45;app (expand) -->
<g id="node3" class="node">
<title>[root] azurerm_resource_group.rg&#45;app (expand)</title>
<polygon fill="none" stroke="black" points="1117.5,-180 872.5,-180 872.5,-144 1117.5,-144 1117.5,-180"/>
<text text-anchor="middle" x="995" y="-158.3" font-family="Times,serif" font-size="14.00">azurerm_resource_group.rg&#45;app</text>
</g>
<!-- [root] azurerm_application_insights.appinsight&#45;app (expand)&#45;&gt;[root] azurerm_resource_group.rg&#45;app (expand) -->
<g id="edge1" class="edge">
<title>[root] azurerm_application_insights.appinsight&#45;app (expand)&#45;&gt;[root] azurerm_resource_group.rg&#45;app (expand)</title>
<path fill="none" stroke="black" d="M937.84,-287.87C949.02,-263.46 969.63,-218.43 982.81,-189.64"/>
<polygon fill="black" stroke="black" points="986.15,-190.74 987.13,-180.19 979.79,-187.83 986.15,-190.74"/>
</g>
<!-- [root] var.app_name -->
<g id="node8" class="node">
<title>[root] var.app_name</title>
<polygon fill="none" stroke="black" points="891.5,-252 782.5,-252 782.5,-216 897.5,-216 897.5,-246 891.5,-252"/>
<polyline fill="none" stroke="black" points="891.5,-252 891.5,-246 "/>
<polyline fill="none" stroke="black" points="897.5,-246 891.5,-246 "/>
<text text-anchor="middle" x="840" y="-230.3" font-family="Times,serif" font-size="14.00">var.app_name</text>
</g>
<!-- [root] azurerm_application_insights.appinsight&#45;app (expand)&#45;&gt;[root] var.app_name -->
<g id="edge2" class="edge">
<title>[root] azurerm_application_insights.appinsight&#45;app (expand)&#45;&gt;[root] var.app_name</title>
<path fill="none" stroke="black" d="M907.75,-287.7C896.42,-278.88 882.47,-268.03 870.18,-258.47"/>
<polygon fill="black" stroke="black" points="872.03,-255.48 861.99,-252.1 867.74,-261.01 872.03,-255.48"/>
</g>
<!-- [root] var.createdby -->
<g id="node9" class="node">
<title>[root] var.createdby</title>
<polygon fill="none" stroke="black" points="848,-180 740,-180 740,-144 854,-144 854,-174 848,-180"/>
<polyline fill="none" stroke="black" points="848,-180 848,-174 "/>
<polyline fill="none" stroke="black" points="854,-174 848,-174 "/>
<text text-anchor="middle" x="797" y="-158.3" font-family="Times,serif" font-size="14.00">var.createdby</text>
</g>
<!-- [root] azurerm_application_insights.appinsight&#45;app (expand)&#45;&gt;[root] var.createdby -->
<g id="edge3" class="edge">
<title>[root] azurerm_application_insights.appinsight&#45;app (expand)&#45;&gt;[root] var.createdby</title>
<path fill="none" stroke="black" d="M929.72,-287.68C928.55,-268.2 923.91,-236.6 907,-216 895.64,-202.17 879.81,-191.69 863.7,-183.87"/>
<polygon fill="black" stroke="black" points="864.76,-180.51 854.2,-179.56 861.86,-186.88 864.76,-180.51"/>
</g>
<!-- [root] azurerm_linux_web_app.app (expand) -->
<g id="node2" class="node">
<title>[root] azurerm_linux_web_app.app (expand)</title>
<polygon fill="none" stroke="black" points="743,-324 525,-324 525,-288 743,-288 743,-324"/>
<text text-anchor="middle" x="634" y="-302.3" font-family="Times,serif" font-size="14.00">azurerm_linux_web_app.app</text>
</g>
<!-- [root] azurerm_service_plan.plan&#45;app (expand) -->
<g id="node4" class="node">
<title>[root] azurerm_service_plan.plan&#45;app (expand)</title>
<polygon fill="none" stroke="black" points="760,-252 522,-252 522,-216 760,-216 760,-252"/>
<text text-anchor="middle" x="641" y="-230.3" font-family="Times,serif" font-size="14.00">azurerm_service_plan.plan&#45;app</text>
</g>
<!-- [root] azurerm_linux_web_app.app (expand)&#45;&gt;[root] azurerm_service_plan.plan&#45;app (expand) -->
<g id="edge4" class="edge">
<title>[root] azurerm_linux_web_app.app (expand)&#45;&gt;[root] azurerm_service_plan.plan&#45;app (expand)</title>
<path fill="none" stroke="black" d="M635.73,-287.7C636.5,-279.98 637.43,-270.71 638.29,-262.11"/>
<polygon fill="black" stroke="black" points="641.78,-262.4 639.29,-252.1 634.81,-261.71 641.78,-262.4"/>
</g>
<!-- [root] azurerm_linux_web_app.app (expand)&#45;&gt;[root] var.app_name -->
<g id="edge5" class="edge">
<title>[root] azurerm_linux_web_app.app (expand)&#45;&gt;[root] var.app_name</title>
<path fill="none" stroke="black" d="M684.13,-287.97C713.04,-278.14 749.57,-265.73 780,-255.39"/>
<polygon fill="black" stroke="black" points="781.3,-258.64 789.65,-252.11 779.05,-252.01 781.3,-258.64"/>
</g>
<!-- [root] provider[&quot;registry.terraform.io/hashicorp/azurerm&quot;] -->
<g id="node5" class="node">
<title>[root] provider[&quot;registry.terraform.io/hashicorp/azurerm&quot;]</title>
<polygon fill="none" stroke="black" points="573,-108 218.41,-90 573,-72 927.59,-90 573,-108"/>
<text text-anchor="middle" x="573" y="-86.3" font-family="Times,serif" font-size="14.00">provider[&quot;registry.terraform.io/hashicorp/azurerm&quot;]</text>
</g>
<!-- [root] azurerm_resource_group.rg&#45;app (expand)&#45;&gt;[root] provider[&quot;registry.terraform.io/hashicorp/azurerm&quot;] -->
<g id="edge6" class="edge">
<title>[root] azurerm_resource_group.rg&#45;app (expand)&#45;&gt;[root] provider[&quot;registry.terraform.io/hashicorp/azurerm&quot;]</title>
<path fill="none" stroke="black" d="M892.31,-143.97C821.76,-132.26 729.05,-116.89 661.72,-105.72"/>
<polygon fill="black" stroke="black" points="661.99,-102.21 651.56,-104.03 660.85,-109.12 661.99,-102.21"/>
</g>
<!-- [root] random_string.random (expand) -->
<g id="node7" class="node">
<title>[root] random_string.random (expand)</title>
<polygon fill="none" stroke="black" points="1430,-108 1250,-108 1250,-72 1430,-72 1430,-108"/>
<text text-anchor="middle" x="1340" y="-86.3" font-family="Times,serif" font-size="14.00">random_string.random</text>
</g>
<!-- [root] azurerm_resource_group.rg&#45;app (expand)&#45;&gt;[root] random_string.random (expand) -->
<g id="edge7" class="edge">
<title>[root] azurerm_resource_group.rg&#45;app (expand)&#45;&gt;[root] random_string.random (expand)</title>
<path fill="none" stroke="black" d="M1078.96,-143.97C1129.45,-133.72 1193.84,-120.66 1246.04,-110.07"/>
<polygon fill="black" stroke="black" points="1246.86,-113.47 1255.97,-108.05 1245.47,-106.61 1246.86,-113.47"/>
</g>
<!-- [root] var.environment -->
<g id="node11" class="node">
<title>[root] var.environment</title>
<polygon fill="none" stroke="black" points="1074,-108 946,-108 946,-72 1080,-72 1080,-102 1074,-108"/>
<polyline fill="none" stroke="black" points="1074,-108 1074,-102 "/>
<polyline fill="none" stroke="black" points="1080,-102 1074,-102 "/>
<text text-anchor="middle" x="1013" y="-86.3" font-family="Times,serif" font-size="14.00">var.environment</text>
</g>
<!-- [root] azurerm_resource_group.rg&#45;app (expand)&#45;&gt;[root] var.environment -->
<g id="edge8" class="edge">
<title>[root] azurerm_resource_group.rg&#45;app (expand)&#45;&gt;[root] var.environment</title>
<path fill="none" stroke="black" d="M999.45,-143.7C1001.45,-135.9 1003.87,-126.51 1006.1,-117.83"/>
<polygon fill="black" stroke="black" points="1009.5,-118.66 1008.6,-108.1 1002.72,-116.92 1009.5,-118.66"/>
</g>
<!-- [root] var.location -->
<g id="node12" class="node">
<title>[root] var.location</title>
<polygon fill="none" stroke="black" points="1191.5,-108 1098.5,-108 1098.5,-72 1197.5,-72 1197.5,-102 1191.5,-108"/>
<polyline fill="none" stroke="black" points="1191.5,-108 1191.5,-102 "/>
<polyline fill="none" stroke="black" points="1197.5,-102 1191.5,-102 "/>
<text text-anchor="middle" x="1148" y="-86.3" font-family="Times,serif" font-size="14.00">var.location</text>
</g>
<!-- [root] azurerm_resource_group.rg&#45;app (expand)&#45;&gt;[root] var.location -->
<g id="edge9" class="edge">
<title>[root] azurerm_resource_group.rg&#45;app (expand)&#45;&gt;[root] var.location</title>
<path fill="none" stroke="black" d="M1032.43,-143.88C1053.25,-134.35 1079.35,-122.41 1101.48,-112.28"/>
<polygon fill="black" stroke="black" points="1103.06,-115.41 1110.69,-108.07 1100.14,-109.05 1103.06,-115.41"/>
</g>
<!-- [root] var.resource_group_name -->
<g id="node13" class="node">
<title>[root] var.resource_group_name</title>
<polygon fill="none" stroke="black" points="194,-108 0,-108 0,-72 200,-72 200,-102 194,-108"/>
<polyline fill="none" stroke="black" points="194,-108 194,-102 "/>
<polyline fill="none" stroke="black" points="200,-102 194,-102 "/>
<text text-anchor="middle" x="100" y="-86.3" font-family="Times,serif" font-size="14.00">var.resource_group_name</text>
</g>
<!-- [root] azurerm_resource_group.rg&#45;app (expand)&#45;&gt;[root] var.resource_group_name -->
<g id="edge10" class="edge">
<title>[root] azurerm_resource_group.rg&#45;app (expand)&#45;&gt;[root] var.resource_group_name</title>
<path fill="none" stroke="black" d="M872.42,-144.9C869.25,-144.59 866.11,-144.29 863,-144 576.37,-117.69 500.21,-138 210,-108.04"/>
<polygon fill="black" stroke="black" points="210.34,-104.55 200.03,-107 209.62,-111.52 210.34,-104.55"/>
</g>
<!-- [root] azurerm_service_plan.plan&#45;app (expand)&#45;&gt;[root] azurerm_resource_group.rg&#45;app (expand) -->
<g id="edge11" class="edge">
<title>[root] azurerm_service_plan.plan&#45;app (expand)&#45;&gt;[root] azurerm_resource_group.rg&#45;app (expand)</title>
<path fill="none" stroke="black" d="M727.15,-215.97C779.07,-205.7 845.3,-192.6 898.92,-182"/>
<polygon fill="black" stroke="black" points="899.64,-185.42 908.78,-180.05 898.29,-178.56 899.64,-185.42"/>
</g>
<!-- [root] azurerm_service_plan.plan&#45;app (expand)&#45;&gt;[root] var.createdby -->
<g id="edge12" class="edge">
<title>[root] azurerm_service_plan.plan&#45;app (expand)&#45;&gt;[root] var.createdby</title>
<path fill="none" stroke="black" d="M679.16,-215.88C700.39,-206.35 727.01,-194.41 749.57,-184.28"/>
<polygon fill="black" stroke="black" points="751.27,-187.36 758.96,-180.07 748.41,-180.97 751.27,-187.36"/>
</g>
<!-- [root] var.service_plan_name -->
<g id="node14" class="node">
<title>[root] var.service_plan_name</title>
<polygon fill="none" stroke="black" points="715.5,-180 544.5,-180 544.5,-144 721.5,-144 721.5,-174 715.5,-180"/>
<polyline fill="none" stroke="black" points="715.5,-180 715.5,-174 "/>
<polyline fill="none" stroke="black" points="721.5,-174 715.5,-174 "/>
<text text-anchor="middle" x="633" y="-158.3" font-family="Times,serif" font-size="14.00">var.service_plan_name</text>
</g>
<!-- [root] azurerm_service_plan.plan&#45;app (expand)&#45;&gt;[root] var.service_plan_name -->
<g id="edge13" class="edge">
<title>[root] azurerm_service_plan.plan&#45;app (expand)&#45;&gt;[root] var.service_plan_name</title>
<path fill="none" stroke="black" d="M639.02,-215.7C638.14,-207.98 637.08,-198.71 636.1,-190.11"/>
<polygon fill="black" stroke="black" points="639.57,-189.64 634.95,-180.1 632.61,-190.44 639.57,-189.64"/>
</g>
<!-- [root] provider[&quot;registry.terraform.io/hashicorp/random&quot;] -->
<g id="node6" class="node">
<title>[root] provider[&quot;registry.terraform.io/hashicorp/random&quot;]</title>
<polygon fill="none" stroke="black" points="1340,-36 989.6,-18 1340,0 1690.4,-18 1340,-36"/>
<text text-anchor="middle" x="1340" y="-14.3" font-family="Times,serif" font-size="14.00">provider[&quot;registry.terraform.io/hashicorp/random&quot;]</text>
</g>
<!-- [root] random_string.random (expand)&#45;&gt;[root] provider[&quot;registry.terraform.io/hashicorp/random&quot;] -->
<g id="edge18" class="edge">
<title>[root] random_string.random (expand)&#45;&gt;[root] provider[&quot;registry.terraform.io/hashicorp/random&quot;]</title>
<path fill="none" stroke="black" d="M1340,-71.7C1340,-63.98 1340,-54.71 1340,-46.11"/>
<polygon fill="black" stroke="black" points="1343.5,-46.1 1340,-36.1 1336.5,-46.1 1343.5,-46.1"/>
</g>
<!-- [root] var.custom_app_settings -->
<g id="node10" class="node">
<title>[root] var.custom_app_settings</title>
<polygon fill="none" stroke="black" points="1633,-396 1447,-396 1447,-360 1639,-360 1639,-390 1633,-396"/>
<polyline fill="none" stroke="black" points="1633,-396 1633,-390 "/>
<polyline fill="none" stroke="black" points="1639,-390 1633,-390 "/>
<text text-anchor="middle" x="1543" y="-374.3" font-family="Times,serif" font-size="14.00">var.custom_app_settings</text>
</g>
<!-- [root] local.common_app_settings (expand) -->
<g id="node15" class="node">
<title>[root] local.common_app_settings (expand)</title>
<ellipse fill="none" stroke="black" cx="1181" cy="-378" rx="209.86" ry="18"/>
<text text-anchor="middle" x="1181" y="-374.3" font-family="Times,serif" font-size="14.00">[root] local.common_app_settings (expand)</text>
</g>
<!-- [root] local.common_app_settings (expand)&#45;&gt;[root] azurerm_application_insights.appinsight&#45;app (expand) -->
<g id="edge14" class="edge">
<title>[root] local.common_app_settings (expand)&#45;&gt;[root] azurerm_application_insights.appinsight&#45;app (expand)</title>
<path fill="none" stroke="black" d="M1122.47,-360.68C1086.3,-350.59 1039.63,-337.58 1001.31,-326.89"/>
<polygon fill="black" stroke="black" points="1001.82,-323.4 991.25,-324.08 999.94,-330.14 1001.82,-323.4"/>
</g>
<!-- [root] provider[&quot;registry.terraform.io/hashicorp/azurerm&quot;] (close) -->
<g id="node16" class="node">
<title>[root] provider[&quot;registry.terraform.io/hashicorp/azurerm&quot;] (close)</title>
<ellipse fill="none" stroke="black" cx="640" cy="-378" rx="313.04" ry="18"/>
<text text-anchor="middle" x="640" y="-374.3" font-family="Times,serif" font-size="14.00">[root] provider[&quot;registry.terraform.io/hashicorp/azurerm&quot;] (close)</text>
</g>
<!-- [root] provider[&quot;registry.terraform.io/hashicorp/azurerm&quot;] (close)&#45;&gt;[root] azurerm_application_insights.appinsight&#45;app (expand) -->
<g id="edge15" class="edge">
<title>[root] provider[&quot;registry.terraform.io/hashicorp/azurerm&quot;] (close)&#45;&gt;[root] azurerm_application_insights.appinsight&#45;app (expand)</title>
<path fill="none" stroke="black" d="M708.73,-360.41C751,-350.21 805.37,-337.08 849.64,-326.4"/>
<polygon fill="black" stroke="black" points="850.6,-329.77 859.5,-324.02 848.96,-322.96 850.6,-329.77"/>
</g>
<!-- [root] provider[&quot;registry.terraform.io/hashicorp/azurerm&quot;] (close)&#45;&gt;[root] azurerm_linux_web_app.app (expand) -->
<g id="edge16" class="edge">
<title>[root] provider[&quot;registry.terraform.io/hashicorp/azurerm&quot;] (close)&#45;&gt;[root] azurerm_linux_web_app.app (expand)</title>
<path fill="none" stroke="black" d="M638.52,-359.7C637.86,-351.98 637.06,-342.71 636.32,-334.11"/>
<polygon fill="black" stroke="black" points="639.81,-333.77 635.47,-324.1 632.83,-334.37 639.81,-333.77"/>
</g>
<!-- [root] provider[&quot;registry.terraform.io/hashicorp/random&quot;] (close) -->
<g id="node17" class="node">
<title>[root] provider[&quot;registry.terraform.io/hashicorp/random&quot;] (close)</title>
<ellipse fill="none" stroke="black" cx="1426" cy="-306" rx="309.25" ry="18"/>
<text text-anchor="middle" x="1426" y="-302.3" font-family="Times,serif" font-size="14.00">[root] provider[&quot;registry.terraform.io/hashicorp/random&quot;] (close)</text>
</g>
<!-- [root] provider[&quot;registry.terraform.io/hashicorp/random&quot;] (close)&#45;&gt;[root] random_string.random (expand) -->
<g id="edge17" class="edge">
<title>[root] provider[&quot;registry.terraform.io/hashicorp/random&quot;] (close)&#45;&gt;[root] random_string.random (expand)</title>
<path fill="none" stroke="black" d="M1419.11,-287.85C1404.14,-250.6 1368.56,-162.07 1350.67,-117.54"/>
<polygon fill="black" stroke="black" points="1353.9,-116.21 1346.93,-108.23 1347.41,-118.82 1353.9,-116.21"/>
</g>
<!-- [root] root -->
<g id="node18" class="node">
<title>[root] root</title>
<ellipse fill="none" stroke="black" cx="1300" cy="-450" rx="58.49" ry="18"/>
<text text-anchor="middle" x="1300" y="-446.3" font-family="Times,serif" font-size="14.00">[root] root</text>
</g>
<!-- [root] root&#45;&gt;[root] var.custom_app_settings -->
<g id="edge22" class="edge">
<title>[root] root&#45;&gt;[root] var.custom_app_settings</title>
<path fill="none" stroke="black" d="M1341.22,-437.13C1377.53,-426.67 1431.14,-411.22 1473.98,-398.88"/>
<polygon fill="black" stroke="black" points="1475.14,-402.19 1483.78,-396.06 1473.2,-395.46 1475.14,-402.19"/>
</g>
<!-- [root] root&#45;&gt;[root] local.common_app_settings (expand) -->
<g id="edge19" class="edge">
<title>[root] root&#45;&gt;[root] local.common_app_settings (expand)</title>
<path fill="none" stroke="black" d="M1274.18,-433.81C1257.85,-424.2 1236.47,-411.63 1218.31,-400.95"/>
<polygon fill="black" stroke="black" points="1220.08,-397.93 1209.69,-395.88 1216.54,-403.96 1220.08,-397.93"/>
</g>
<!-- [root] root&#45;&gt;[root] provider[&quot;registry.terraform.io/hashicorp/azurerm&quot;] (close) -->
<g id="edge20" class="edge">
<title>[root] root&#45;&gt;[root] provider[&quot;registry.terraform.io/hashicorp/azurerm&quot;] (close)</title>
<path fill="none" stroke="black" d="M1245.71,-443.24C1147.54,-432.83 937.27,-410.53 792.26,-395.15"/>
<polygon fill="black" stroke="black" points="792.25,-391.63 781.93,-394.05 791.51,-398.59 792.25,-391.63"/>
</g>
<!-- [root] root&#45;&gt;[root] provider[&quot;registry.terraform.io/hashicorp/random&quot;] (close) -->
<g id="edge21" class="edge">
<title>[root] root&#45;&gt;[root] provider[&quot;registry.terraform.io/hashicorp/random&quot;] (close)</title>
<path fill="none" stroke="black" d="M1339.57,-436.52C1360.28,-428.12 1384.48,-415.04 1400,-396 1414.26,-378.5 1420.7,-353.46 1423.61,-334.4"/>
<polygon fill="black" stroke="black" points="1427.11,-334.6 1424.92,-324.24 1420.17,-333.71 1427.11,-334.6"/>
</g>
</g>
</svg>
